<svg id="Layer_1" data-name="Layer 1" xmlns="http://www.w3.org/2000/svg" viewBox="0 0 704 126"><defs><style>.cls-1{fill:#fff;}</style></defs><title>Artboard 1 copy 3</title><polygon class="cls-1" points="88.27 3.1 63.16 42.25 38.05 3.1 4.35 3.1 43.38 62.03 4.35 121 38.05 121 63.16 81.81 88.27 121 122.28 121 82.94 62.03 122.28 3.1 88.27 3.1"/><polygon class="cls-1" points="239.89 3.1 214.78 42.25 189.68 3.1 155.98 3.1 195 62.03 155.98 121 189.68 121 214.78 81.81 239.89 121 273.91 121 234.56 62.03 273.91 3.1 239.89 3.1"/><path class="cls-1" d="M346.36,10.18l-.12,13.33q-.15,12.91-3.76,18.52t-11.19,5.62H329.1V40.84h1.19a6,6,0,0,0,5.54-3.91q1.4-3.58,1.52-13.41L337.5,9.6l-4.66-.91V3.33h39.61V8.69l-4.75.91V41.42l4.75.91v5.33H354.09V42.33l4.75-.91V10.18Z"/><path class="cls-1" d="M416.51,28.17h-15V40.84h14.31l.4-5.3H423V47.66H387.89V42.33l4.72-.91V9.6l-4.72-.91V3.33h35V15.48h-6.82l-.4-5.3H401.5V21.32h15Z"/><path class="cls-1" d="M479.44,3.33V15.14h-6.82l-.37-5H464.1V41.42l4.75.91v5.33H450.46V42.33l4.75-.91V10.18h-8.13l-.37,5h-6.79V3.33Z"/><path class="cls-1" d="M350.44,78.15q7.61,0,12,3.91a13.06,13.06,0,0,1,4.4,10.24,13,13,0,0,1-4.4,10.23q-4.4,3.87-12,3.87h-7.49v9.83l4.75.91v5.33H329.34v-5.33l4.72-.91V84.42l-4.72-.91V78.15h21.1Zm-7.49,21.4h7.49a7.34,7.34,0,0,0,5.62-2,7.23,7.23,0,0,0,1.9-5.16,7.54,7.54,0,0,0-1.9-5.28A7.23,7.23,0,0,0,350.44,85h-7.49Z"/><path class="cls-1" d="M400.52,78.15v5.36l-4.75.91v20.52l.18.06,17.87-18.11V84.42l-4.72-.91V78.15h18.36v5.36l-4.72.91v31.81l4.72.91v5.33H409.11v-5.33l4.72-.91v-20l-.18-.06-17.87,18.14v1.95l4.75.91v5.33H382.17v-5.33l4.75-.91V84.42l-4.75-.91V78.15h18.36Z"/><path class="cls-1" d="M442.27,117.14l3.17-.46,13.49-38.54H468l13.39,38.54,3.17.46v5.33h-15.1v-5.33l3.08-.55-1.95-6.09H456.24l-1.95,6.09,3.07.55v5.33h-15.1ZM458.34,104h10.17l-5-15.62h-.18Z"/><path class="cls-1" d="M517.14,85,517,98.33q-.15,12.91-3.76,18.53t-11.19,5.62h-2.19v-6.82h1.19a6,6,0,0,0,5.54-3.91q1.4-3.58,1.52-13.41l.15-13.91-4.66-.91V78.15h39.61v5.36l-4.75.91v31.81l4.75.91v5.33H524.87v-5.33l4.75-.91V85Z"/><path class="cls-1" d="M578.37,78.15q7.82,0,12.21,3t4.38,9.1a9.62,9.62,0,0,1-1.63,5.5,9.84,9.84,0,0,1-4.73,3.64,9.41,9.41,0,0,1,6,3.65,10.9,10.9,0,0,1,2,6.48q0,6.36-4.2,9.63t-11.9,3.27h-21.8v-5.33l4.72-.91V84.42l-4.72-.91V78.15h19.7Zm-6.09,18.57h6.39a8.89,8.89,0,0,0,5.48-1.46A5,5,0,0,0,586.07,91a5.32,5.32,0,0,0-1.93-4.54A9.5,9.5,0,0,0,578.37,85h-6.09Zm0,6.15v12.79h8.19a8.26,8.26,0,0,0,5.39-1.54,5.57,5.57,0,0,0,1.86-4.55,7.1,7.1,0,0,0-1.58-5q-1.58-1.72-5-1.72Z"/><path class="cls-1" d="M640.6,103h-15v12.66H639.9l.4-5.3h6.76v12.12H612v-5.33l4.72-.91V84.42L612,83.51V78.15h35V90.29h-6.82l-.4-5.3H625.59V96.14h15Z"/><path class="cls-1" d="M664.14,117.14l4.72-.91V84.42l-4.72-.91V78.15h33.61V89.38h-6.82L690.57,85H677.87v9.56h7.61q7.7,0,12.18,3.76a12.44,12.44,0,0,1,4.48,10,12.86,12.86,0,0,1-4.51,10.24q-4.51,3.88-12.15,3.88H664.14Zm13.73-15.74v14.25h7.61a7.67,7.67,0,0,0,5.77-2.08,7.27,7.27,0,0,0,2-5.28,6.55,6.55,0,0,0-2-5,8.06,8.06,0,0,0-5.78-1.92Z"/></svg>