<?xml version="1.0" encoding="utf-8"?>
<!-- Generator: Adobe Illustrator 18.1.1, SVG Export Plug-In . SVG Version: 6.00 Build 0)  -->
<svg version="1.1" id="Слой_1" xmlns="http://www.w3.org/2000/svg" xmlns:xlink="http://www.w3.org/1999/xlink" x="0px" y="0px"
	 width="86px" height="14.2px" viewBox="-916 533.8 86 14.2" enable-background="new -916 533.8 86 14.2" xml:space="preserve">
<g id="Layer_1">
	<g>
		<g>
			<g>
				<g>
					<polygon fill="#FFFFFF" points="-904.7,533.8 -907.7,538.5 -910.7,533.8 -914.8,533.8 -910.1,540.9 -914.8,548 -910.7,548 
						-907.7,543.3 -904.7,548 -900.6,548 -905.3,540.9 -900.6,533.8 					"/>
				</g>
				<g>
					<polygon fill="#FFFFFF" points="-886.4,533.8 -889.5,538.5 -892.5,533.8 -896.5,533.8 -891.8,540.9 -896.5,548 -892.5,548 
						-889.5,543.3 -886.4,548 -882.4,548 -887.1,540.9 -882.4,533.8 					"/>
				</g>
			</g>
		</g>
		<g enable-background="new    ">
			<path fill="#FFFFFF" d="M-873.5,538.5l0.6-0.1V536h-1v0.9c0,0.8-0.1,1.4-0.4,1.7s-0.6,0.6-1.2,0.6h-0.2l0-0.8l0.1,0
				c0.2,0,0.4-0.1,0.5-0.3c0.1-0.2,0.1-0.6,0.1-1.1V536l-0.6-0.1v-0.6h3.7h0.6v0.6l-0.6,0.1v2.5l0.6,0.1v0.6h-2.2V538.5z"/>
			<path fill="#FFFFFF" d="M-867.9,539.2c-0.6,0-1-0.2-1.4-0.5s-0.5-0.8-0.5-1.4v-0.1c0-0.6,0.2-1.1,0.5-1.5
				c0.3-0.4,0.8-0.6,1.3-0.6c0.5,0,0.9,0.2,1.2,0.5s0.4,0.8,0.4,1.3v0.6h-2.4l0,0c0,0.3,0.1,0.5,0.3,0.6c0.2,0.2,0.4,0.3,0.6,0.3
				c0.2,0,0.4,0,0.6-0.1s0.3-0.1,0.5-0.2l0.3,0.7c-0.2,0.1-0.4,0.2-0.6,0.3C-867.3,539.2-867.6,539.2-867.9,539.2z M-868,535.9
				c-0.2,0-0.4,0.1-0.5,0.2c-0.1,0.2-0.2,0.4-0.2,0.6l0,0h1.3v-0.1c0-0.2-0.1-0.4-0.2-0.5C-867.6,536-867.8,535.9-868,535.9z"/>
			<path fill="#FFFFFF" d="M-860.7,535.2v1.4h-0.8l0-0.5h-0.7v2.4l0.6,0.1v0.6h-2.2v-0.6l0.6-0.1V536h-0.7l0,0.5h-0.8v-1.4H-860.7z"
				/>
		</g>
		<g enable-background="new    ">
			<path fill="#FFFFFF" d="M-873.2,542.8c0.6,0,1.1,0.2,1.4,0.5s0.5,0.7,0.5,1.2c0,0.5-0.2,0.9-0.5,1.2c-0.4,0.3-0.8,0.5-1.4,0.5
				h-0.9v1.2l0.6,0.1v0.6h-2.2v-0.6l0.6-0.1v-3.8l-0.6-0.1v-0.6h0.6H-873.2z M-874.1,545.4h0.9c0.3,0,0.5-0.1,0.7-0.2
				c0.2-0.2,0.2-0.4,0.2-0.6c0-0.3-0.1-0.5-0.2-0.6c-0.2-0.2-0.4-0.3-0.7-0.3h-0.9V545.4z"/>
			<path fill="#FFFFFF" d="M-867.6,544.2v0.6l-0.5,0.1v1.7l0,0l1.3-2.4h1.1h0.6v0.6l-0.6,0.1v2.5l0.6,0.1v0.6h-2.2v-0.6l0.5-0.1
				v-1.7l0,0l-1.3,2.4h-1.6v-0.6l0.6-0.1V545l-0.6-0.1v-0.6h1.6H-867.6z"/>
			<path fill="#FFFFFF" d="M-861.1,548.2c0-0.1-0.1-0.1-0.1-0.2s0-0.1-0.1-0.2c-0.1,0.1-0.3,0.3-0.5,0.4s-0.4,0.1-0.6,0.1
				c-0.4,0-0.7-0.1-0.9-0.3c-0.2-0.2-0.3-0.5-0.3-0.9c0-0.4,0.1-0.7,0.4-0.9c0.3-0.2,0.7-0.3,1.3-0.3h0.5v-0.4
				c0-0.2-0.1-0.3-0.2-0.4c-0.1-0.1-0.3-0.2-0.5-0.2c-0.1,0-0.2,0-0.3,0s-0.2,0.1-0.2,0.1l-0.1,0.4h-0.8l0-0.9
				c0.2-0.1,0.4-0.2,0.7-0.3c0.3-0.1,0.5-0.1,0.8-0.1c0.5,0,0.9,0.1,1.2,0.4s0.5,0.6,0.5,1v1.6c0,0.1,0,0.1,0,0.2c0,0.1,0,0.1,0,0.2
				l0.3,0v0.6H-861.1z M-862,547.4c0.2,0,0.3,0,0.4-0.1c0.1-0.1,0.2-0.2,0.3-0.3v-0.6h-0.5c-0.2,0-0.4,0.1-0.5,0.2
				c-0.1,0.1-0.2,0.2-0.2,0.4c0,0.1,0,0.2,0.1,0.3C-862.3,547.4-862.2,547.4-862,547.4z"/>
			<path fill="#FFFFFF" d="M-856.3,547.5l0.6-0.1V545h-1v0.9c0,0.8-0.1,1.4-0.4,1.7s-0.6,0.6-1.2,0.6h-0.2l0-0.8l0.1,0
				c0.2,0,0.4-0.1,0.5-0.3c0.1-0.2,0.1-0.6,0.1-1.1V545l-0.6-0.1v-0.6h3.7h0.6v0.6l-0.6,0.1v2.5l0.6,0.1v0.6h-2.2V547.5z"/>
			<path fill="#FFFFFF" d="M-850.3,544.2c0.5,0,0.9,0.1,1.2,0.3s0.4,0.5,0.4,0.8c0,0.2-0.1,0.3-0.2,0.5c-0.1,0.1-0.3,0.3-0.5,0.3
				c0.3,0.1,0.5,0.2,0.7,0.3c0.2,0.2,0.2,0.4,0.2,0.6c0,0.4-0.1,0.7-0.4,0.8c-0.3,0.2-0.7,0.3-1.2,0.3h-2.5v-0.6l0.6-0.1V545
				l-0.6-0.1v-0.6h0.6H-850.3z M-850.9,545.8h0.6c0.2,0,0.3,0,0.4-0.1s0.1-0.2,0.1-0.3c0-0.1-0.1-0.3-0.2-0.3
				c-0.1-0.1-0.3-0.1-0.5-0.1h-0.6V545.8z M-850.9,546.5v0.8h0.8c0.2,0,0.3,0,0.4-0.1s0.1-0.2,0.1-0.3s0-0.2-0.1-0.3
				c-0.1-0.1-0.2-0.1-0.4-0.1H-850.9z"/>
			<path fill="#FFFFFF" d="M-845,548.2c-0.6,0-1-0.2-1.4-0.5s-0.5-0.8-0.5-1.4v-0.1c0-0.6,0.2-1.1,0.5-1.5c0.3-0.4,0.8-0.6,1.3-0.6
				c0.5,0,0.9,0.2,1.2,0.5s0.4,0.8,0.4,1.3v0.6h-2.4l0,0c0,0.3,0.1,0.5,0.3,0.6c0.2,0.2,0.4,0.3,0.6,0.3c0.2,0,0.4,0,0.6-0.1
				s0.3-0.1,0.5-0.2l0.3,0.7c-0.2,0.1-0.4,0.2-0.6,0.3C-844.4,548.2-844.7,548.2-845,548.2z M-845.1,544.9c-0.2,0-0.4,0.1-0.5,0.2
				c-0.1,0.2-0.2,0.4-0.2,0.6l0,0h1.3v-0.1c0-0.2-0.1-0.4-0.2-0.5C-844.8,545-844.9,544.9-845.1,544.9z"/>
			<path fill="#FFFFFF" d="M-839.9,544.4c0.6,0,1,0.2,1.3,0.5s0.5,0.8,0.5,1.3v0.1c0,0.6-0.2,1-0.5,1.4c-0.3,0.4-0.8,0.5-1.4,0.5
				c-0.6,0-1-0.2-1.4-0.5c-0.3-0.4-0.5-0.8-0.5-1.4v-0.5c0-0.9,0.2-1.5,0.5-2c0.3-0.5,0.8-0.8,1.3-0.9c0.2,0,0.4-0.1,0.5-0.2
				s0.2-0.2,0.2-0.3h0.8l0,0c0,0.5-0.1,0.8-0.3,0.9c-0.2,0.2-0.6,0.3-1.2,0.4c-0.3,0-0.5,0.2-0.7,0.3c-0.2,0.2-0.3,0.4-0.3,0.7l0,0
				c0.1-0.1,0.3-0.2,0.5-0.3C-840.3,544.5-840.1,544.4-839.9,544.4z M-840,545.2c-0.3,0-0.5,0.1-0.6,0.3s-0.2,0.4-0.2,0.7v0.1
				c0,0.3,0.1,0.6,0.2,0.8c0.1,0.2,0.3,0.3,0.6,0.3c0.3,0,0.5-0.1,0.6-0.3s0.2-0.5,0.2-0.8v-0.1c0-0.3-0.1-0.5-0.2-0.7
				S-839.7,545.2-840,545.2z"/>
		</g>
	</g>
</g>
<g id="Layer_2">
</g>
<g id="Layer_3">
</g>
<g id="Layer_4">
</g>
</svg>
