<?xml version="1.0" encoding="utf-8"?>
<!-- Generator: Adobe Illustrator 18.1.1, SVG Export Plug-In . SVG Version: 6.00 Build 0)  -->
<svg version="1.1" id="Слой_1" xmlns="http://www.w3.org/2000/svg" xmlns:xlink="http://www.w3.org/1999/xlink" x="0px" y="0px"
	 width="442.5px" height="190.6px" viewBox="-738 445.4 442.5 190.6" enable-background="new -738 445.4 442.5 190.6"
	 xml:space="preserve">
<g>
	<defs>
		<polygon id="SVGID_1_" points="-599.4,445.4 -640,508.7 -680.6,445.4 -735.1,445.4 -672,540.7 -735.1,636 -680.6,636 -640,572.6 
			-599.4,636 -544.4,636 -608,540.7 -544.4,445.4 		"/>
	</defs>
	<clipPath id="SVGID_2_">
		<use xlink:href="#SVGID_1_"  overflow="visible"/>
	</clipPath>
	<g transform="matrix(1 0 0 1 0 0)" clip-path="url(#SVGID_2_)">
		
			<image overflow="visible" width="531" height="297" xlink:href="../Без имени-1.jpg"  transform="matrix(0.8842 0 0 0.8842 -755.5 392.2)">
		</image>
	</g>
</g>
<g>
	<defs>
		<polygon id="SVGID_3_" points="-354.3,445.4 -394.9,508.7 -435.5,445.4 -490,445.4 -426.9,540.7 -490,636 -435.5,636 
			-394.9,572.6 -354.3,636 -299.3,636 -362.9,540.7 -299.3,445.4 		"/>
	</defs>
	<clipPath id="SVGID_4_">
		<use xlink:href="#SVGID_3_"  overflow="visible"/>
	</clipPath>
	<g transform="matrix(1 0 0 1 0 0)" clip-path="url(#SVGID_4_)">
		
			<image overflow="visible" width="531" height="297" xlink:href="../Без имени-1.jpg"  transform="matrix(0.8842 0 0 0.8842 -755.5 392.2)">
		</image>
	</g>
</g>
<g id="Layer_2">
</g>
<g id="Layer_3">
</g>
</svg>
