<?xml version="1.0" encoding="UTF-8" standalone="no"?>
<!-- Generator: Adobe Illustrator 18.1.1, SVG Export Plug-In . SVG Version: 6.00 Build 0)  -->

<svg
   xmlns:dc="http://purl.org/dc/elements/1.1/"
   xmlns:cc="http://creativecommons.org/ns#"
   xmlns:rdf="http://www.w3.org/1999/02/22-rdf-syntax-ns#"
   xmlns:svg="http://www.w3.org/2000/svg"
   xmlns="http://www.w3.org/2000/svg"
   xmlns:sodipodi="http://sodipodi.sourceforge.net/DTD/sodipodi-0.dtd"
   xmlns:inkscape="http://www.inkscape.org/namespaces/inkscape"
   version="1.1"
   x="0px"
   y="0px"
   width="440"
   height="270"
   viewBox="0 0 440 270"
   enable-background="new 0 0 876 490.9"
   xml:space="preserve"
   id="svg2917"
   sodipodi:docname="main_bg-20.svg"
   inkscape:version="0.92.3 (d244b95, 2018-08-02)"><metadata
   id="metadata2923"><rdf:RDF><cc:Work
       rdf:about=""><dc:format>image/svg+xml</dc:format><dc:type
         rdf:resource="http://purl.org/dc/dcmitype/StillImage" /><dc:title></dc:title></cc:Work></rdf:RDF></metadata><defs
   id="defs2921" /><sodipodi:namedview
   pagecolor="#ffffff"
   bordercolor="#666666"
   borderopacity="1"
   objecttolerance="10"
   gridtolerance="10"
   guidetolerance="10"
   inkscape:pageopacity="0"
   inkscape:pageshadow="2"
   inkscape:window-width="1315"
   inkscape:window-height="713"
   id="namedview2919"
   showgrid="false"
   inkscape:zoom="0.9614993"
   inkscape:cx="279.29026"
   inkscape:cy="110.58702"
   inkscape:window-x="51"
   inkscape:window-y="27"
   inkscape:window-maximized="1"
   inkscape:current-layer="Layer_1" />
<g
   id="Layer_1"
   transform="translate(12.480508,-98.17499)">
	
	<g
   id="g2951"
   transform="translate(-319.67037,4.2220575)"><path
     inkscape:connector-curvature="0"
     id="path2887"
     d="M 95.604726,-19.120946 V 471.77905 H 971.60473 V -19.120946 Z M 502.00473,284.67905 h -55 l -40.6,-63.3 -40.6,63.3 h -54.5 l 63.1,-95.3 -63.1,-95.300002 h 54.5 l 40.6,63.300002 40.6,-63.300002 h 55 l -63.6,95.300002 z m 245.2,0 h -55 l -40.6,-63.4 -40.6,63.3 h -54.5 l 63.1,-95.3 -63.1,-95.300002 h 54.5 l 40.6,63.300002 40.6,-63.300002 h 55 l -63.6,95.400002 z" /><g
     transform="translate(95.604726,-19.120946)"
     id="g2911">
		<path
   style="fill:#ffffff"
   inkscape:connector-curvature="0"
   id="path2891"
   d="m 228.6,345.2 -0.1,10.3 c -0.1,6.6 -1,11.4 -2.9,14.3 -1.9,2.9 -4.7,4.3 -8.6,4.3 h -1.7 v -5.3 h 0.9 c 2.1,-0.2 3.6,-1.2 4.3,-3 0.7,-1.8 1.1,-5.3 1.2,-10.3 l 0.1,-10.7 -3.6,-0.7 V 340 h 26.9 3.7 v 4.1 l -3.7,0.7 v 24.5 l 3.7,0.7 v 4.1 H 234.6 V 370 l 3.7,-0.7 v -24.1 z" />
		<path
   style="fill:#ffffff"
   inkscape:connector-curvature="0"
   id="path2893"
   d="m 282.7,359.1 h -11.6 v 9.8 h 11 l 0.3,-4.1 h 5.2 v 9.3 h -27 V 370 l 3.6,-0.7 v -24.5 l -3.6,-0.7 V 340 h 3.6 23.4 v 9.4 h -5.3 l -0.3,-4.1 h -10.9 v 8.6 h 11.6 z" />
		<path
   style="fill:#ffffff"
   inkscape:connector-curvature="0"
   id="path2895"
   d="M 331.2,339.9 V 349 H 326 l -0.3,-3.8 h -6.3 v 24.1 l 3.7,0.7 v 4.1 H 308.9 V 370 l 3.7,-0.7 v -24.1 h -6.3 L 306,349 h -5.2 v -9.1 z" />
		<path
   style="fill:#ffffff"
   inkscape:connector-curvature="0"
   id="path2897"
   d="m 380.2,339.9 c 3.9,0 7,1 9.3,3 2.3,2 3.4,4.6 3.4,7.9 0,3.3 -1.1,5.9 -3.4,7.9 -2.3,2 -5.3,3 -9.3,3 h -5.8 v 7.6 l 3.7,0.7 v 4.1 H 363.9 V 370 l 3.6,-0.7 v -24.5 l -3.6,-0.7 V 340 h 3.6 12.7 z m -5.8,16.5 h 5.8 c 1.9,0 3.4,-0.5 4.3,-1.6 1,-1 1.5,-2.4 1.5,-4 0,-1.6 -0.5,-3 -1.5,-4.1 -1,-1.1 -2.4,-1.6 -4.3,-1.6 h -5.8 z" />
		<path
   style="fill:#ffffff"
   inkscape:connector-curvature="0"
   id="path2899"
   d="m 418.8,339.9 v 4.1 l -3.7,0.7 v 15.8 h 0.1 l 13.8,-14 v -1.9 l -3.6,-0.7 v -4.1 h 3.6 6.9 3.6 v 4.1 l -3.6,0.7 v 24.5 l 3.6,0.7 v 4.1 H 425.3 V 370 l 3.6,-0.7 v -15.4 h -0.1 l -13.8,14 v 1.5 l 3.7,0.7 v 4.1 H 404.5 V 370 l 3.7,-0.7 v -24.5 l -3.7,-0.7 V 340 h 3.7 6.8 3.8 z" />
		<path
   style="fill:#ffffff"
   inkscape:connector-curvature="0"
   id="path2901"
   d="m 451,370 2.4,-0.4 10.4,-29.7 h 7 l 10.3,29.7 2.4,0.4 v 4.1 H 472 V 370 l 2.4,-0.4 -1.5,-4.7 h -11.1 l -1.5,4.7 2.4,0.4 v 4.1 H 451 Z m 12.4,-10.2 h 7.8 l -3.8,-12 h -0.1 z" />
		<path
   style="fill:#ffffff"
   inkscape:connector-curvature="0"
   id="path2903"
   d="m 508.7,345.2 -0.1,10.3 c -0.1,6.6 -1,11.4 -2.9,14.3 -1.9,2.9 -4.7,4.3 -8.6,4.3 h -1.7 v -5.3 h 0.9 c 2.1,-0.2 3.6,-1.2 4.3,-3 0.7,-1.8 1.1,-5.3 1.2,-10.3 l 0.1,-10.7 -3.6,-0.7 V 340 h 26.9 3.7 v 4.1 l -3.7,0.7 v 24.5 l 3.7,0.7 v 4.1 H 514.7 V 370 l 3.7,-0.7 v -24.1 z" />
		<path
   style="fill:#ffffff"
   inkscape:connector-curvature="0"
   id="path2905"
   d="m 555.9,339.9 c 4,0 7.2,0.8 9.4,2.3 2.3,1.6 3.4,3.9 3.4,7 0,1.6 -0.4,3 -1.3,4.2 -0.8,1.2 -2.1,2.2 -3.7,2.8 2,0.4 3.6,1.4 4.6,2.8 1,1.4 1.5,3.1 1.5,5 0,3.3 -1.1,5.7 -3.2,7.4 -2.2,1.7 -5.2,2.5 -9.2,2.5 H 540.6 V 370 l 3.6,-0.7 v -24.5 l -3.6,-0.7 V 340 h 3.6 11.7 z m -4.7,14.3 h 4.9 c 1.8,0 3.2,-0.4 4.2,-1.1 1,-0.8 1.5,-1.8 1.5,-3.3 0,-1.6 -0.5,-2.7 -1.5,-3.5 -1,-0.8 -2.5,-1.1 -4.4,-1.1 h -4.7 z m 0,4.8 v 9.9 h 6.3 c 1.8,0 3.2,-0.4 4.2,-1.2 1,-0.8 1.4,-2 1.4,-3.5 0,-1.7 -0.4,-3 -1.2,-3.8 -0.8,-0.9 -2.1,-1.3 -3.8,-1.3 h -6.9 z" />
		<path
   style="fill:#ffffff"
   inkscape:connector-curvature="0"
   id="path2907"
   d="m 603.9,359.1 h -11.6 v 9.8 h 11 l 0.3,-4.1 h 5.2 v 9.3 h -27 V 370 l 3.6,-0.7 v -24.5 l -3.6,-0.7 V 340 h 3.6 23.4 v 9.4 h -5.3 l -0.3,-4.1 h -10.9 v 8.6 h 11.6 z" />
		<path
   style="fill:#ffffff"
   inkscape:connector-curvature="0"
   id="path2909"
   d="m 622.1,370 3.6,-0.7 v -24.5 l -3.6,-0.7 V 340 H 648 v 8.7 h -5.3 l -0.3,-3.4 h -9.8 v 7.4 h 5.9 c 4,0 7.1,1 9.4,2.9 2.3,1.9 3.5,4.5 3.5,7.7 0,3.3 -1.2,5.9 -3.5,7.9 -2.3,2 -5.4,3 -9.4,3 H 622 V 370 Z m 10.6,-12.1 v 11 h 5.9 c 1.9,0 3.4,-0.5 4.4,-1.6 1,-1.1 1.6,-2.4 1.6,-4.1 0,-1.6 -0.5,-2.8 -1.5,-3.8 -1,-1 -2.5,-1.5 -4.5,-1.5 z" />
	</g></g>
</g>
<g
   id="Layer_2"
   transform="translate(0,-220.89999)">
</g>
<g
   id="Layer_3"
   transform="translate(0,-220.89999)">
</g>
<g
   id="Layer_4"
   transform="translate(0,-220.89999)">
</g>
</svg>