<?xml version="1.0" encoding="utf-8"?>
<!-- Generator: Adobe Illustrator 18.1.1, SVG Export Plug-In . SVG Version: 6.00 Build 0)  -->
<svg version="1.1" xmlns="http://www.w3.org/2000/svg" xmlns:xlink="http://www.w3.org/1999/xlink" x="0px" y="0px" width="18.3px"
	 height="39.4px" viewBox="0 0 18.3 39.4" enable-background="new 0 0 18.3 39.4" xml:space="preserve">
<g id="Layer_1">
	<g>
		<g>
			<path fill="#FFFFFF" d="M9.3,28.2c-4.3,0-7.8-3.5-7.8-7.8v-10c0-4.3,3.5-7.8,7.8-7.8s7.8,3.5,7.8,7.8v10
				C17.1,24.7,13.6,28.2,9.3,28.2z M9.3,4.7c-3.2,0-5.8,2.6-5.8,5.8v10c0,3.2,2.6,5.8,5.8,5.8s5.8-2.6,5.8-5.8v-10
				C15.1,7.3,12.5,4.7,9.3,4.7z"/>
		</g>
		<g>
			<rect x="8.3" y="7.7" fill="#FFFFFF" width="2" height="5.1"/>
		</g>
		<g>
			<polygon fill="#FFFFFF" points="9.3,37.9 5.2,33.8 6.7,32.4 9.3,35.1 12,32.4 13.4,33.8 			"/>
		</g>
	</g>
</g>
<g id="Layer_2">
</g>
<g id="Layer_3">
</g>
<g id="Layer_4">
</g>
</svg>
