<?xml version="1.0" encoding="utf-8"?>
<!-- Generator: Adobe Illustrator 18.1.1, SVG Export Plug-In . SVG Version: 6.00 Build 0)  -->
<svg version="1.1" xmlns="http://www.w3.org/2000/svg" xmlns:xlink="http://www.w3.org/1999/xlink" x="0px" y="0px" width="43px"
	 height="43.7px" viewBox="0 0 43 43.7" enable-background="new 0 0 43 43.7" xml:space="preserve">
<g id="Layer_1">
</g>
<g id="Layer_2">
</g>
<g id="Layer_3">
</g>
<g id="Layer_4">
	<g>
		<circle cx="21.7" cy="21.9" r="20.5"/>
		<g>
			<path fill="#FFFFFF" d="M21.7,24.3l-2.1-1.8l-5.9,5.1c0.2,0.2,0.5,0.3,0.8,0.3h14.4c0.3,0,0.6-0.1,0.8-0.3l-5.9-5.1L21.7,24.3z
				 M21.7,24.3"/>
			<path fill="#FFFFFF" d="M29.7,16.2c-0.2-0.2-0.5-0.3-0.8-0.3H14.5c-0.3,0-0.6,0.1-0.8,0.3l8,6.9L29.7,16.2z M29.7,16.2"/>
			<path fill="#FFFFFF" d="M13.3,16.9v10l5.8-4.9L13.3,16.9z M13.3,16.9"/>
			<path fill="#FFFFFF" d="M24.3,22l5.8,4.9v-10L24.3,22z M24.3,22"/>
		</g>
	</g>
</g>
</svg>
