<?xml version="1.0" encoding="utf-8"?>
<!-- Generator: Adobe Illustrator 18.1.1, SVG Export Plug-In . SVG Version: 6.00 Build 0)  -->
<svg version="1.1" xmlns="http://www.w3.org/2000/svg" xmlns:xlink="http://www.w3.org/1999/xlink" x="0px" y="0px" width="45.3px"
	 height="43.7px" viewBox="0 0 45.3 43.7" enable-background="new 0 0 45.3 43.7" xml:space="preserve">
<g id="Layer_1">
</g>
<g id="Layer_2">
</g>
<g id="Layer_3">
</g>
<g id="Layer_4">
	<g>
		<circle fill="#FFFFFF" cx="23.2" cy="21.9" r="20.5"/>
		<g>
			<path d="M23.2,24.3l-2.1-1.8l-5.9,5.1c0.2,0.2,0.5,0.3,0.8,0.3h14.4c0.3,0,0.6-0.1,0.8-0.3l-5.9-5.1L23.2,24.3z M23.2,24.3"/>
			<path d="M31.2,16.2c-0.2-0.2-0.5-0.3-0.8-0.3H16c-0.3,0-0.6,0.1-0.8,0.3l8,6.9L31.2,16.2z M31.2,16.2"/>
			<path d="M14.8,16.9v10l5.8-4.9L14.8,16.9z M14.8,16.9"/>
			<path d="M25.8,22l5.8,4.9v-10L25.8,22z M25.8,22"/>
		</g>
	</g>
</g>
</svg>
