<?xml version="1.0" encoding="utf-8"?>
<!-- Generator: Adobe Illustrator 18.1.1, SVG Export Plug-In . SVG Version: 6.00 Build 0)  -->
<svg version="1.1" xmlns="http://www.w3.org/2000/svg" xmlns:xlink="http://www.w3.org/1999/xlink" x="0px" y="0px" width="242.9px"
	 height="237.8px" viewBox="0 0 242.9 237.8" enable-background="new 0 0 242.9 237.8" xml:space="preserve">
<g id="Layer_1">
	<polygon points="169.3,0 118.6,79 68,0 0,0 78.7,118.9 0,237.8 68,237.8 118.6,158.8 169.3,237.8 237.9,237.8 158.5,118.9 237.9,0 
			"/>
	<g>
		<defs>
			<path id="SVGID_13_" d="M280.8,241.3l-0.3-4.5l3-2v-8l3-14l8-19l6-25l9-27l6-11l9-9l24-6l22-5l3-2l8-12h4l2-13v-14l-2.5-1.3
				l-2.5-3.8l1-4l1-8l3-6h2v-17l4-10l13-9l11-5h7.5l7.5,2l7,4l7,7l4,6l4,6l1,7v7l-7,14v3v7l-4,8l-2,5l-3-1l-2,4l-4,7l-6,7l-2,5v6
				l3,2l3,8l9,5l29,18l5,8l2,15l-1,33l5.3,42.5l-54.3-0.5h-94l-3-27l-1.3,1.4c-5,5.5-7.7,12.7-7.7,20.1v5.5L280.8,241.3z"/>
		</defs>
		<clipPath id="SVGID_2_">
			<use xlink:href="#SVGID_13_"  overflow="visible"/>
		</clipPath>
		<g transform="matrix(1 0 0 1 -1.525879e-005 0)" clip-path="url(#SVGID_2_)">
			
				<image overflow="visible" width="762" height="1100" xlink:href="Links/S4322D00Y-K11.jpg"  transform="matrix(0.3709 0 0 0.3709 242.5715 -4.162)">
			</image>
		</g>
	</g>
</g>
<g id="Layer_2">
</g>
<g id="Layer_3">
</g>
<g id="Layer_4">
</g>
</svg>
