<?xml version="1.0" encoding="utf-8"?>
<!-- Generator: Adobe Illustrator 18.1.1, SVG Export Plug-In . SVG Version: 6.00 Build 0)  -->
<svg version="1.1" xmlns="http://www.w3.org/2000/svg" xmlns:xlink="http://www.w3.org/1999/xlink" x="0px" y="0px" width="33.2px"
	 height="33.5px" viewBox="0 0 33.2 33.5" enable-background="new 0 0 33.2 33.5" xml:space="preserve">
<g id="Layer_1">
	<path d="M16.4,3.2c7.4,0,13.5,6,13.5,13.5s-6,13.5-13.5,13.5S3,24,3,16.6S9,3.2,16.4,3.2 M16.4,1.2C7.9,1.2,1,8.1,1,16.6
		c0,8.5,6.9,15.5,15.5,15.5c8.5,0,15.5-6.9,15.5-15.5C31.9,8.1,25,1.2,16.4,1.2L16.4,1.2z"/>
	<rect x="12.1" y="12.3" transform="matrix(0.7071 -0.7071 0.7071 0.7071 -6.9307 16.4763)" width="8.6" height="8.6"/>
</g>
<g id="Layer_2">
</g>
<g id="Layer_3">
</g>
<g id="Layer_4">
</g>
</svg>
